# xmcd
#
# Track frame offsets: 
#        150
#        15896
#        41768
#        63009
#        78409
#        99653
#        118921
#        136878
#        155189
#        171383
#        185542
#        207683
#        225292
#        241282
#
# Disc length: 3442 seconds
#
# Revision: 1
# Processed by: cddbd v1.5.2PL0 Copyright (c) Steve Scherf et al.
# Submitted via: ExactAudioCopy v0.95b4
#
DISCID=ba0d700e
DTITLE=Various Artist - Hits Of The 80's - CD1
DYEAR=1900
DGENRE=New Age
TTITLE0=F.R. David - Words
TTITLE1=David Christie - Saddle Up
TTITLE2=Stephanie - Irristible
TTITLE3=Hot Shot - Fire In The Night
TTITLE4=Luv - Anna-Maria
TTITLE5=Patsy - Liverpool
TTITLE6=Claire Severac and Albert Hammond - Hearts Of Hearts
TTITLE7=Gary Glitter - Close To You
TTITLE8=Dana - I Feel Love Comin' On
TTITLE9=Renée and Renato - Save Your Love
TTITLE10=Club Nouveau - Lean On Me
TTITLE11=Imagination - Just An Illusion
TTITLE12=Doctor and The Medics - Spirit In The Sky
TTITLE13=Goombay Dance Band - Seven Tears
EXTD=
EXTT0=
EXTT1=
EXTT2=
EXTT3=
EXTT4=
EXTT5=
EXTT6=
EXTT7=
EXTT8=
EXTT9=
EXTT10=
EXTT11=
EXTT12=
EXTT13=
PLAYORDER=
